<mxfile host="app.diagrams.net" modified="2022-04-25T08:35:46.476Z" agent="5.0 (Windows NT 10.0; Win64; x64) AppleWebKit/537.36 (KHTML, like Gecko) Chrome/100.0.4896.127 Safari/537.36" etag="IA4plErRGUHZDLb8YUuw" version="17.4.6" type="github">
  <diagram id="8yv8x4xLdOjy9bAiMFpc" name="Page-1">
    <mxGraphModel dx="1038" dy="547" grid="1" gridSize="10" guides="1" tooltips="1" connect="1" arrows="1" fold="1" page="1" pageScale="1" pageWidth="1169" pageHeight="1654" math="0" shadow="0">
      <root>
        <mxCell id="0" />
        <mxCell id="1" parent="0" />
        <mxCell id="VKPEJCzh6WlOgu4LDUzR-1" value="" style="ellipse;html=1;shape=startState;fillColor=#000000;strokeColor=#ff0000;" vertex="1" parent="1">
          <mxGeometry x="485" y="20" width="30" height="30" as="geometry" />
        </mxCell>
        <mxCell id="VKPEJCzh6WlOgu4LDUzR-2" value="" style="edgeStyle=orthogonalEdgeStyle;html=1;verticalAlign=bottom;endArrow=open;endSize=8;strokeColor=#ff0000;rounded=0;entryX=0.5;entryY=0;entryDx=0;entryDy=0;entryPerimeter=0;" edge="1" source="VKPEJCzh6WlOgu4LDUzR-1" parent="1" target="VKPEJCzh6WlOgu4LDUzR-4">
          <mxGeometry relative="1" as="geometry">
            <mxPoint x="485" y="110" as="targetPoint" />
          </mxGeometry>
        </mxCell>
        <mxCell id="VKPEJCzh6WlOgu4LDUzR-4" value="Se connecter via un formulaire de connexion" style="strokeWidth=2;html=1;shape=mxgraph.flowchart.terminator;whiteSpace=wrap;" vertex="1" parent="1">
          <mxGeometry x="450" y="110" width="100" height="70" as="geometry" />
        </mxCell>
        <mxCell id="VKPEJCzh6WlOgu4LDUzR-8" value="Vérification utilisateur" style="strokeWidth=2;html=1;shape=mxgraph.flowchart.terminator;whiteSpace=wrap;" vertex="1" parent="1">
          <mxGeometry x="450" y="260" width="100" height="70" as="geometry" />
        </mxCell>
        <mxCell id="VKPEJCzh6WlOgu4LDUzR-10" value="&amp;nbsp;" style="endArrow=block;endFill=1;html=1;edgeStyle=orthogonalEdgeStyle;align=left;verticalAlign=top;rounded=0;exitX=1;exitY=0.5;exitDx=0;exitDy=0;exitPerimeter=0;" edge="1" parent="1" source="VKPEJCzh6WlOgu4LDUzR-8" target="VKPEJCzh6WlOgu4LDUzR-12">
          <mxGeometry x="-1" y="-87" relative="1" as="geometry">
            <mxPoint x="560" y="285" as="sourcePoint" />
            <mxPoint x="620" y="350" as="targetPoint" />
            <Array as="points">
              <mxPoint x="550" y="300" />
              <mxPoint x="620" y="300" />
            </Array>
            <mxPoint x="-15" y="-1" as="offset" />
          </mxGeometry>
        </mxCell>
        <mxCell id="VKPEJCzh6WlOgu4LDUzR-11" value="1" style="edgeLabel;resizable=0;html=1;align=left;verticalAlign=bottom;" connectable="0" vertex="1" parent="VKPEJCzh6WlOgu4LDUzR-10">
          <mxGeometry x="-1" relative="1" as="geometry" />
        </mxCell>
        <mxCell id="VKPEJCzh6WlOgu4LDUzR-12" value="" style="shape=rhombus;perimeter=rhombusPerimeter;whiteSpace=wrap;html=1;align=center;" vertex="1" parent="1">
          <mxGeometry x="560" y="320" width="120" height="60" as="geometry" />
        </mxCell>
        <mxCell id="VKPEJCzh6WlOgu4LDUzR-14" value="Non" style="endArrow=block;endFill=1;html=1;edgeStyle=orthogonalEdgeStyle;align=left;verticalAlign=top;rounded=0;" edge="1" parent="1">
          <mxGeometry x="1" y="138" relative="1" as="geometry">
            <mxPoint x="500" y="180" as="sourcePoint" />
            <mxPoint x="495" y="260" as="targetPoint" />
            <Array as="points">
              <mxPoint x="495" y="180" />
            </Array>
            <mxPoint x="-3" y="30" as="offset" />
          </mxGeometry>
        </mxCell>
        <mxCell id="VKPEJCzh6WlOgu4LDUzR-15" value="1" style="edgeLabel;resizable=0;html=1;align=left;verticalAlign=bottom;" connectable="0" vertex="1" parent="VKPEJCzh6WlOgu4LDUzR-14">
          <mxGeometry x="-1" relative="1" as="geometry" />
        </mxCell>
        <mxCell id="VKPEJCzh6WlOgu4LDUzR-18" style="edgeStyle=orthogonalEdgeStyle;rounded=0;orthogonalLoop=1;jettySize=auto;html=1;exitX=0.5;exitY=1;exitDx=0;exitDy=0;exitPerimeter=0;" edge="1" parent="1" source="VKPEJCzh6WlOgu4LDUzR-4" target="VKPEJCzh6WlOgu4LDUzR-4">
          <mxGeometry relative="1" as="geometry" />
        </mxCell>
        <mxCell id="VKPEJCzh6WlOgu4LDUzR-19" value="&amp;nbsp;" style="endArrow=block;endFill=1;html=1;edgeStyle=orthogonalEdgeStyle;align=left;verticalAlign=top;rounded=0;" edge="1" parent="1">
          <mxGeometry x="1" y="138" relative="1" as="geometry">
            <mxPoint x="622.5" y="380" as="sourcePoint" />
            <mxPoint x="617.5" y="460" as="targetPoint" />
            <Array as="points">
              <mxPoint x="617.5" y="380" />
            </Array>
            <mxPoint x="-3" y="30" as="offset" />
          </mxGeometry>
        </mxCell>
        <mxCell id="VKPEJCzh6WlOgu4LDUzR-20" value="1" style="edgeLabel;resizable=0;html=1;align=left;verticalAlign=bottom;" connectable="0" vertex="1" parent="VKPEJCzh6WlOgu4LDUzR-19">
          <mxGeometry x="-1" relative="1" as="geometry" />
        </mxCell>
        <mxCell id="VKPEJCzh6WlOgu4LDUzR-21" value="Redirection vers la page de création de compte" style="strokeWidth=2;html=1;shape=mxgraph.flowchart.terminator;whiteSpace=wrap;" vertex="1" parent="1">
          <mxGeometry x="570" y="460" width="100" height="70" as="geometry" />
        </mxCell>
        <mxCell id="VKPEJCzh6WlOgu4LDUzR-24" value="Oui" style="endArrow=block;endFill=1;html=1;edgeStyle=orthogonalEdgeStyle;align=left;verticalAlign=top;rounded=0;" edge="1" parent="1">
          <mxGeometry x="0.1808" y="-24" relative="1" as="geometry">
            <mxPoint x="450" y="294.5" as="sourcePoint" />
            <mxPoint x="370" y="350" as="targetPoint" />
            <mxPoint x="24" y="-24" as="offset" />
          </mxGeometry>
        </mxCell>
        <mxCell id="VKPEJCzh6WlOgu4LDUzR-25" value="1" style="edgeLabel;resizable=0;html=1;align=left;verticalAlign=bottom;" connectable="0" vertex="1" parent="VKPEJCzh6WlOgu4LDUzR-24">
          <mxGeometry x="-1" relative="1" as="geometry" />
        </mxCell>
        <mxCell id="VKPEJCzh6WlOgu4LDUzR-26" value="" style="shape=rhombus;perimeter=rhombusPerimeter;whiteSpace=wrap;html=1;align=center;" vertex="1" parent="1">
          <mxGeometry x="310" y="350" width="120" height="60" as="geometry" />
        </mxCell>
        <mxCell id="VKPEJCzh6WlOgu4LDUzR-27" value="&amp;nbsp;" style="endArrow=block;endFill=1;html=1;edgeStyle=orthogonalEdgeStyle;align=left;verticalAlign=top;rounded=0;" edge="1" parent="1">
          <mxGeometry x="1" y="138" relative="1" as="geometry">
            <mxPoint x="372.5" y="410" as="sourcePoint" />
            <mxPoint x="367.5" y="490" as="targetPoint" />
            <Array as="points">
              <mxPoint x="367.5" y="410" />
            </Array>
            <mxPoint x="-3" y="30" as="offset" />
          </mxGeometry>
        </mxCell>
        <mxCell id="VKPEJCzh6WlOgu4LDUzR-28" value="1" style="edgeLabel;resizable=0;html=1;align=left;verticalAlign=bottom;" connectable="0" vertex="1" parent="VKPEJCzh6WlOgu4LDUzR-27">
          <mxGeometry x="-1" relative="1" as="geometry" />
        </mxCell>
        <mxCell id="VKPEJCzh6WlOgu4LDUzR-29" value="redirection sur ma page de compte" style="strokeWidth=2;html=1;shape=mxgraph.flowchart.terminator;whiteSpace=wrap;" vertex="1" parent="1">
          <mxGeometry x="320" y="490" width="100" height="70" as="geometry" />
        </mxCell>
        <mxCell id="VKPEJCzh6WlOgu4LDUzR-30" value="&amp;nbsp;" style="endArrow=block;endFill=1;html=1;edgeStyle=orthogonalEdgeStyle;align=left;verticalAlign=top;rounded=0;" edge="1" parent="1">
          <mxGeometry x="1" y="138" relative="1" as="geometry">
            <mxPoint x="372.5" y="560" as="sourcePoint" />
            <mxPoint x="367.5" y="640" as="targetPoint" />
            <Array as="points">
              <mxPoint x="367.5" y="560" />
            </Array>
            <mxPoint x="-3" y="30" as="offset" />
          </mxGeometry>
        </mxCell>
        <mxCell id="VKPEJCzh6WlOgu4LDUzR-31" value="1" style="edgeLabel;resizable=0;html=1;align=left;verticalAlign=bottom;" connectable="0" vertex="1" parent="VKPEJCzh6WlOgu4LDUzR-30">
          <mxGeometry x="-1" relative="1" as="geometry" />
        </mxCell>
        <mxCell id="VKPEJCzh6WlOgu4LDUzR-32" value="Se rendre sur la page de création d&#39;offre" style="strokeWidth=2;html=1;shape=mxgraph.flowchart.terminator;whiteSpace=wrap;" vertex="1" parent="1">
          <mxGeometry x="320" y="640" width="100" height="70" as="geometry" />
        </mxCell>
        <mxCell id="VKPEJCzh6WlOgu4LDUzR-33" value="&amp;nbsp;" style="endArrow=block;endFill=1;html=1;edgeStyle=orthogonalEdgeStyle;align=left;verticalAlign=top;rounded=0;" edge="1" parent="1">
          <mxGeometry x="1" y="138" relative="1" as="geometry">
            <mxPoint x="372.5" y="710" as="sourcePoint" />
            <mxPoint x="367.5" y="790" as="targetPoint" />
            <Array as="points">
              <mxPoint x="367.5" y="710" />
            </Array>
            <mxPoint x="-3" y="30" as="offset" />
          </mxGeometry>
        </mxCell>
        <mxCell id="VKPEJCzh6WlOgu4LDUzR-34" value="1" style="edgeLabel;resizable=0;html=1;align=left;verticalAlign=bottom;" connectable="0" vertex="1" parent="VKPEJCzh6WlOgu4LDUzR-33">
          <mxGeometry x="-1" relative="1" as="geometry" />
        </mxCell>
        <mxCell id="VKPEJCzh6WlOgu4LDUzR-35" value="Créer une demande d&#39;offre" style="strokeWidth=2;html=1;shape=mxgraph.flowchart.terminator;whiteSpace=wrap;" vertex="1" parent="1">
          <mxGeometry x="320" y="792" width="100" height="70" as="geometry" />
        </mxCell>
        <mxCell id="VKPEJCzh6WlOgu4LDUzR-36" value="Indépendant/freelance" style="endArrow=block;endFill=1;html=1;edgeStyle=orthogonalEdgeStyle;align=left;verticalAlign=top;rounded=0;exitX=1;exitY=0.5;exitDx=0;exitDy=0;exitPerimeter=0;" edge="1" parent="1" target="VKPEJCzh6WlOgu4LDUzR-38">
          <mxGeometry x="-0.2842" y="22" relative="1" as="geometry">
            <mxPoint x="421" y="979" as="sourcePoint" />
            <mxPoint x="491" y="1034" as="targetPoint" />
            <Array as="points">
              <mxPoint x="421" y="984" />
              <mxPoint x="491" y="984" />
            </Array>
            <mxPoint as="offset" />
          </mxGeometry>
        </mxCell>
        <mxCell id="VKPEJCzh6WlOgu4LDUzR-37" value="1" style="edgeLabel;resizable=0;html=1;align=left;verticalAlign=bottom;" connectable="0" vertex="1" parent="VKPEJCzh6WlOgu4LDUzR-36">
          <mxGeometry x="-1" relative="1" as="geometry" />
        </mxCell>
        <mxCell id="VKPEJCzh6WlOgu4LDUzR-38" value="" style="shape=rhombus;perimeter=rhombusPerimeter;whiteSpace=wrap;html=1;align=center;" vertex="1" parent="1">
          <mxGeometry x="431" y="1004" width="120" height="60" as="geometry" />
        </mxCell>
        <mxCell id="VKPEJCzh6WlOgu4LDUzR-39" value="&amp;nbsp;" style="endArrow=block;endFill=1;html=1;edgeStyle=orthogonalEdgeStyle;align=left;verticalAlign=top;rounded=0;" edge="1" parent="1">
          <mxGeometry x="1" y="138" relative="1" as="geometry">
            <mxPoint x="493.5" y="1064" as="sourcePoint" />
            <mxPoint x="488.5" y="1144" as="targetPoint" />
            <Array as="points">
              <mxPoint x="488.5" y="1064" />
            </Array>
            <mxPoint x="-3" y="30" as="offset" />
          </mxGeometry>
        </mxCell>
        <mxCell id="VKPEJCzh6WlOgu4LDUzR-40" value="1" style="edgeLabel;resizable=0;html=1;align=left;verticalAlign=bottom;" connectable="0" vertex="1" parent="VKPEJCzh6WlOgu4LDUzR-39">
          <mxGeometry x="-1" relative="1" as="geometry" />
        </mxCell>
        <mxCell id="VKPEJCzh6WlOgu4LDUzR-41" value="Valider la demande d&#39;offre" style="strokeWidth=2;html=1;shape=mxgraph.flowchart.terminator;whiteSpace=wrap;" vertex="1" parent="1">
          <mxGeometry x="441" y="1144" width="100" height="70" as="geometry" />
        </mxCell>
        <mxCell id="VKPEJCzh6WlOgu4LDUzR-42" value="&amp;nbsp;" style="endArrow=block;endFill=1;html=1;edgeStyle=orthogonalEdgeStyle;align=left;verticalAlign=top;rounded=0;" edge="1" parent="1">
          <mxGeometry x="1" y="138" relative="1" as="geometry">
            <mxPoint x="373.5" y="861" as="sourcePoint" />
            <mxPoint x="368.5" y="941" as="targetPoint" />
            <Array as="points">
              <mxPoint x="368.5" y="861" />
            </Array>
            <mxPoint x="-3" y="30" as="offset" />
          </mxGeometry>
        </mxCell>
        <mxCell id="VKPEJCzh6WlOgu4LDUzR-43" value="1" style="edgeLabel;resizable=0;html=1;align=left;verticalAlign=bottom;" connectable="0" vertex="1" parent="VKPEJCzh6WlOgu4LDUzR-42">
          <mxGeometry x="-1" relative="1" as="geometry" />
        </mxCell>
        <mxCell id="VKPEJCzh6WlOgu4LDUzR-44" value="Vérifier le statut de l&#39;employeur&amp;nbsp;" style="strokeWidth=2;html=1;shape=mxgraph.flowchart.terminator;whiteSpace=wrap;" vertex="1" parent="1">
          <mxGeometry x="321" y="943" width="100" height="70" as="geometry" />
        </mxCell>
        <mxCell id="VKPEJCzh6WlOgu4LDUzR-45" value="1" style="edgeLabel;resizable=0;html=1;align=left;verticalAlign=bottom;" connectable="0" vertex="1" parent="1">
          <mxGeometry x="422" y="1130" as="geometry" />
        </mxCell>
        <mxCell id="VKPEJCzh6WlOgu4LDUzR-46" value="Entreprise" style="endArrow=block;endFill=1;html=1;edgeStyle=orthogonalEdgeStyle;align=left;verticalAlign=top;rounded=0;" edge="1" parent="1">
          <mxGeometry x="0.1808" y="-24" relative="1" as="geometry">
            <mxPoint x="319" y="974.5" as="sourcePoint" />
            <mxPoint x="239" y="1030" as="targetPoint" />
            <mxPoint x="24" y="-24" as="offset" />
          </mxGeometry>
        </mxCell>
        <mxCell id="VKPEJCzh6WlOgu4LDUzR-47" value="1" style="edgeLabel;resizable=0;html=1;align=left;verticalAlign=bottom;" connectable="0" vertex="1" parent="VKPEJCzh6WlOgu4LDUzR-46">
          <mxGeometry x="-1" relative="1" as="geometry" />
        </mxCell>
        <mxCell id="VKPEJCzh6WlOgu4LDUzR-48" value="" style="shape=rhombus;perimeter=rhombusPerimeter;whiteSpace=wrap;html=1;align=center;" vertex="1" parent="1">
          <mxGeometry x="179" y="1030" width="120" height="60" as="geometry" />
        </mxCell>
        <mxCell id="VKPEJCzh6WlOgu4LDUzR-49" value="&amp;nbsp;" style="endArrow=block;endFill=1;html=1;edgeStyle=orthogonalEdgeStyle;align=left;verticalAlign=top;rounded=0;" edge="1" parent="1">
          <mxGeometry x="1" y="138" relative="1" as="geometry">
            <mxPoint x="241.5" y="1090" as="sourcePoint" />
            <mxPoint x="236.5" y="1170" as="targetPoint" />
            <Array as="points">
              <mxPoint x="236.5" y="1090" />
            </Array>
            <mxPoint x="-3" y="30" as="offset" />
          </mxGeometry>
        </mxCell>
        <mxCell id="VKPEJCzh6WlOgu4LDUzR-50" value="1" style="edgeLabel;resizable=0;html=1;align=left;verticalAlign=bottom;" connectable="0" vertex="1" parent="VKPEJCzh6WlOgu4LDUzR-49">
          <mxGeometry x="-1" relative="1" as="geometry" />
        </mxCell>
        <mxCell id="VKPEJCzh6WlOgu4LDUzR-51" value="Vérification des informations de l&#39;entreprise&amp;nbsp;" style="strokeWidth=2;html=1;shape=mxgraph.flowchart.terminator;whiteSpace=wrap;" vertex="1" parent="1">
          <mxGeometry x="189" y="1170" width="100" height="70" as="geometry" />
        </mxCell>
        <mxCell id="VKPEJCzh6WlOgu4LDUzR-52" value="1" style="edgeLabel;resizable=0;html=1;align=left;verticalAlign=bottom;" connectable="0" vertex="1" parent="1">
          <mxGeometry x="241.5" y="1240" as="geometry" />
        </mxCell>
        <mxCell id="VKPEJCzh6WlOgu4LDUzR-53" value="données incomplètes" style="endArrow=block;endFill=1;html=1;edgeStyle=orthogonalEdgeStyle;align=left;verticalAlign=top;rounded=0;exitX=1;exitY=0.5;exitDx=0;exitDy=0;exitPerimeter=0;" edge="1" parent="1" target="VKPEJCzh6WlOgu4LDUzR-55">
          <mxGeometry x="-0.2842" y="22" relative="1" as="geometry">
            <mxPoint x="290" y="1203" as="sourcePoint" />
            <mxPoint x="360" y="1258" as="targetPoint" />
            <Array as="points">
              <mxPoint x="290" y="1208" />
              <mxPoint x="360" y="1208" />
            </Array>
            <mxPoint as="offset" />
          </mxGeometry>
        </mxCell>
        <mxCell id="VKPEJCzh6WlOgu4LDUzR-54" value="1" style="edgeLabel;resizable=0;html=1;align=left;verticalAlign=bottom;" connectable="0" vertex="1" parent="VKPEJCzh6WlOgu4LDUzR-53">
          <mxGeometry x="-1" relative="1" as="geometry" />
        </mxCell>
        <mxCell id="VKPEJCzh6WlOgu4LDUzR-55" value="" style="shape=rhombus;perimeter=rhombusPerimeter;whiteSpace=wrap;html=1;align=center;" vertex="1" parent="1">
          <mxGeometry x="300" y="1228" width="120" height="60" as="geometry" />
        </mxCell>
        <mxCell id="VKPEJCzh6WlOgu4LDUzR-56" value="&amp;nbsp;" style="endArrow=block;endFill=1;html=1;edgeStyle=orthogonalEdgeStyle;align=left;verticalAlign=top;rounded=0;" edge="1" parent="1">
          <mxGeometry x="1" y="138" relative="1" as="geometry">
            <mxPoint x="362.5" y="1288" as="sourcePoint" />
            <mxPoint x="357.5" y="1368" as="targetPoint" />
            <Array as="points">
              <mxPoint x="357.5" y="1288" />
            </Array>
            <mxPoint x="-3" y="30" as="offset" />
          </mxGeometry>
        </mxCell>
        <mxCell id="VKPEJCzh6WlOgu4LDUzR-57" value="1" style="edgeLabel;resizable=0;html=1;align=left;verticalAlign=bottom;" connectable="0" vertex="1" parent="VKPEJCzh6WlOgu4LDUzR-56">
          <mxGeometry x="-1" relative="1" as="geometry" />
        </mxCell>
        <mxCell id="VKPEJCzh6WlOgu4LDUzR-58" value="redirection vers la page de création/modification d&#39;entreprise" style="strokeWidth=2;html=1;shape=mxgraph.flowchart.terminator;whiteSpace=wrap;" vertex="1" parent="1">
          <mxGeometry x="310" y="1368" width="100" height="82" as="geometry" />
        </mxCell>
        <mxCell id="VKPEJCzh6WlOgu4LDUzR-59" value="1" style="edgeLabel;resizable=0;html=1;align=left;verticalAlign=bottom;" connectable="0" vertex="1" parent="1">
          <mxGeometry x="291" y="1354" as="geometry" />
        </mxCell>
        <mxCell id="VKPEJCzh6WlOgu4LDUzR-60" value="données complètes" style="endArrow=block;endFill=1;html=1;edgeStyle=orthogonalEdgeStyle;align=left;verticalAlign=top;rounded=0;" edge="1" parent="1">
          <mxGeometry x="0.1808" y="-34" relative="1" as="geometry">
            <mxPoint x="188" y="1198.5" as="sourcePoint" />
            <mxPoint x="108" y="1254" as="targetPoint" />
            <mxPoint x="16" y="-28" as="offset" />
          </mxGeometry>
        </mxCell>
        <mxCell id="VKPEJCzh6WlOgu4LDUzR-61" value="1" style="edgeLabel;resizable=0;html=1;align=left;verticalAlign=bottom;" connectable="0" vertex="1" parent="VKPEJCzh6WlOgu4LDUzR-60">
          <mxGeometry x="-1" relative="1" as="geometry" />
        </mxCell>
        <mxCell id="VKPEJCzh6WlOgu4LDUzR-62" value="" style="shape=rhombus;perimeter=rhombusPerimeter;whiteSpace=wrap;html=1;align=center;" vertex="1" parent="1">
          <mxGeometry x="48" y="1254" width="120" height="60" as="geometry" />
        </mxCell>
        <mxCell id="VKPEJCzh6WlOgu4LDUzR-63" value="&amp;nbsp;" style="endArrow=block;endFill=1;html=1;edgeStyle=orthogonalEdgeStyle;align=left;verticalAlign=top;rounded=0;" edge="1" parent="1">
          <mxGeometry x="1" y="138" relative="1" as="geometry">
            <mxPoint x="110.5" y="1314" as="sourcePoint" />
            <mxPoint x="105.5" y="1394" as="targetPoint" />
            <Array as="points">
              <mxPoint x="105.5" y="1314" />
            </Array>
            <mxPoint x="-3" y="30" as="offset" />
          </mxGeometry>
        </mxCell>
        <mxCell id="VKPEJCzh6WlOgu4LDUzR-64" value="1" style="edgeLabel;resizable=0;html=1;align=left;verticalAlign=bottom;" connectable="0" vertex="1" parent="VKPEJCzh6WlOgu4LDUzR-63">
          <mxGeometry x="-1" relative="1" as="geometry" />
        </mxCell>
        <mxCell id="VKPEJCzh6WlOgu4LDUzR-65" value="validation de la demande d&#39;offre" style="strokeWidth=2;html=1;shape=mxgraph.flowchart.terminator;whiteSpace=wrap;" vertex="1" parent="1">
          <mxGeometry x="58" y="1394" width="100" height="70" as="geometry" />
        </mxCell>
        <mxCell id="VKPEJCzh6WlOgu4LDUzR-66" value="1" style="edgeLabel;resizable=0;html=1;align=left;verticalAlign=bottom;" connectable="0" vertex="1" parent="1">
          <mxGeometry x="110.5" y="1464" as="geometry" />
        </mxCell>
        <mxCell id="VKPEJCzh6WlOgu4LDUzR-67" value="&amp;nbsp;" style="endArrow=block;endFill=1;html=1;edgeStyle=orthogonalEdgeStyle;align=left;verticalAlign=top;rounded=0;" edge="1" parent="1">
          <mxGeometry x="1" y="138" relative="1" as="geometry">
            <mxPoint x="113" y="1464" as="sourcePoint" />
            <mxPoint x="108" y="1544" as="targetPoint" />
            <Array as="points">
              <mxPoint x="108" y="1464" />
            </Array>
            <mxPoint x="-3" y="30" as="offset" />
          </mxGeometry>
        </mxCell>
        <mxCell id="VKPEJCzh6WlOgu4LDUzR-68" value="1" style="edgeLabel;resizable=0;html=1;align=left;verticalAlign=bottom;" connectable="0" vertex="1" parent="VKPEJCzh6WlOgu4LDUzR-67">
          <mxGeometry x="-1" relative="1" as="geometry" />
        </mxCell>
        <mxCell id="VKPEJCzh6WlOgu4LDUzR-69" value="Envoi d&#39;email de confirmation" style="strokeWidth=2;html=1;shape=mxgraph.flowchart.terminator;whiteSpace=wrap;" vertex="1" parent="1">
          <mxGeometry x="60.5" y="1544" width="100" height="70" as="geometry" />
        </mxCell>
        <mxCell id="VKPEJCzh6WlOgu4LDUzR-70" value="1" style="edgeLabel;resizable=0;html=1;align=left;verticalAlign=bottom;" connectable="0" vertex="1" parent="1">
          <mxGeometry x="113" y="1614" as="geometry" />
        </mxCell>
        <mxCell id="VKPEJCzh6WlOgu4LDUzR-71" value="" style="ellipse;html=1;shape=endState;fillColor=#000000;strokeColor=#ff0000;" vertex="1" parent="1">
          <mxGeometry x="355" y="1670" width="30" height="30" as="geometry" />
        </mxCell>
        <mxCell id="VKPEJCzh6WlOgu4LDUzR-72" value="&amp;nbsp;" style="endArrow=block;endFill=1;html=1;edgeStyle=orthogonalEdgeStyle;align=left;verticalAlign=top;rounded=0;exitX=0.5;exitY=1;exitDx=0;exitDy=0;exitPerimeter=0;entryX=0;entryY=0.5;entryDx=0;entryDy=0;" edge="1" parent="1" source="VKPEJCzh6WlOgu4LDUzR-69" target="VKPEJCzh6WlOgu4LDUzR-71">
          <mxGeometry x="0.0174" y="71" relative="1" as="geometry">
            <mxPoint x="280" y="1460" as="sourcePoint" />
            <mxPoint x="440" y="1460" as="targetPoint" />
            <mxPoint x="1" as="offset" />
          </mxGeometry>
        </mxCell>
        <mxCell id="VKPEJCzh6WlOgu4LDUzR-73" value="1" style="edgeLabel;resizable=0;html=1;align=left;verticalAlign=bottom;" connectable="0" vertex="1" parent="VKPEJCzh6WlOgu4LDUzR-72">
          <mxGeometry x="-1" relative="1" as="geometry" />
        </mxCell>
        <mxCell id="VKPEJCzh6WlOgu4LDUzR-74" value="" style="endArrow=block;endFill=1;html=1;edgeStyle=orthogonalEdgeStyle;align=left;verticalAlign=top;rounded=0;entryX=0.5;entryY=1;entryDx=0;entryDy=0;entryPerimeter=0;" edge="1" parent="1" target="VKPEJCzh6WlOgu4LDUzR-51">
          <mxGeometry x="-0.6522" y="70" relative="1" as="geometry">
            <mxPoint x="370" y="1450" as="sourcePoint" />
            <mxPoint x="440" y="1460" as="targetPoint" />
            <Array as="points">
              <mxPoint x="370" y="1480" />
              <mxPoint x="239" y="1480" />
            </Array>
            <mxPoint as="offset" />
          </mxGeometry>
        </mxCell>
        <mxCell id="VKPEJCzh6WlOgu4LDUzR-75" value="1" style="edgeLabel;resizable=0;html=1;align=left;verticalAlign=bottom;" connectable="0" vertex="1" parent="VKPEJCzh6WlOgu4LDUzR-74">
          <mxGeometry x="-1" relative="1" as="geometry" />
        </mxCell>
        <mxCell id="VKPEJCzh6WlOgu4LDUzR-76" value="1" style="edgeLabel;resizable=0;html=1;align=left;verticalAlign=bottom;" connectable="0" vertex="1" parent="1">
          <mxGeometry x="491" y="1214" as="geometry" />
        </mxCell>
        <mxCell id="VKPEJCzh6WlOgu4LDUzR-77" value="&amp;nbsp;" style="endArrow=block;endFill=1;html=1;edgeStyle=orthogonalEdgeStyle;align=left;verticalAlign=top;rounded=0;" edge="1" parent="1">
          <mxGeometry x="1" y="138" relative="1" as="geometry">
            <mxPoint x="493.5" y="1214" as="sourcePoint" />
            <mxPoint x="488.5" y="1294" as="targetPoint" />
            <Array as="points">
              <mxPoint x="488.5" y="1214" />
            </Array>
            <mxPoint x="-3" y="30" as="offset" />
          </mxGeometry>
        </mxCell>
        <mxCell id="VKPEJCzh6WlOgu4LDUzR-78" value="1" style="edgeLabel;resizable=0;html=1;align=left;verticalAlign=bottom;" connectable="0" vertex="1" parent="VKPEJCzh6WlOgu4LDUzR-77">
          <mxGeometry x="-1" relative="1" as="geometry" />
        </mxCell>
        <mxCell id="VKPEJCzh6WlOgu4LDUzR-79" value="Envoi d&#39;email de confirmation" style="strokeWidth=2;html=1;shape=mxgraph.flowchart.terminator;whiteSpace=wrap;" vertex="1" parent="1">
          <mxGeometry x="441" y="1294" width="100" height="70" as="geometry" />
        </mxCell>
        <mxCell id="VKPEJCzh6WlOgu4LDUzR-80" value="1" style="edgeLabel;resizable=0;html=1;align=left;verticalAlign=bottom;" connectable="0" vertex="1" parent="1">
          <mxGeometry x="493.5" y="1364" as="geometry" />
        </mxCell>
        <mxCell id="VKPEJCzh6WlOgu4LDUzR-81" value="1" style="edgeLabel;resizable=0;html=1;align=left;verticalAlign=bottom;" connectable="0" vertex="1" parent="1">
          <mxGeometry x="491" y="1364" as="geometry" />
        </mxCell>
        <mxCell id="VKPEJCzh6WlOgu4LDUzR-82" value="" style="endArrow=block;endFill=1;html=1;edgeStyle=orthogonalEdgeStyle;align=left;verticalAlign=top;rounded=0;exitX=0.5;exitY=1;exitDx=0;exitDy=0;exitPerimeter=0;entryX=1;entryY=0.5;entryDx=0;entryDy=0;" edge="1" parent="1" source="VKPEJCzh6WlOgu4LDUzR-79" target="VKPEJCzh6WlOgu4LDUzR-71">
          <mxGeometry x="-0.7845" y="79" relative="1" as="geometry">
            <mxPoint x="280" y="1440" as="sourcePoint" />
            <mxPoint x="440" y="1440" as="targetPoint" />
            <mxPoint as="offset" />
          </mxGeometry>
        </mxCell>
        <mxCell id="VKPEJCzh6WlOgu4LDUzR-83" value="1" style="edgeLabel;resizable=0;html=1;align=left;verticalAlign=bottom;" connectable="0" vertex="1" parent="VKPEJCzh6WlOgu4LDUzR-82">
          <mxGeometry x="-1" relative="1" as="geometry" />
        </mxCell>
        <mxCell id="VKPEJCzh6WlOgu4LDUzR-85" value="" style="endArrow=block;endFill=1;html=1;edgeStyle=orthogonalEdgeStyle;align=left;verticalAlign=top;rounded=0;" edge="1" parent="1">
          <mxGeometry x="-0.625" y="-55" relative="1" as="geometry">
            <mxPoint x="670" y="494.5" as="sourcePoint" />
            <mxPoint x="750" y="640" as="targetPoint" />
            <mxPoint y="1" as="offset" />
          </mxGeometry>
        </mxCell>
        <mxCell id="VKPEJCzh6WlOgu4LDUzR-86" value="1" style="edgeLabel;resizable=0;html=1;align=left;verticalAlign=bottom;" connectable="0" vertex="1" parent="VKPEJCzh6WlOgu4LDUzR-85">
          <mxGeometry x="-1" relative="1" as="geometry" />
        </mxCell>
        <mxCell id="VKPEJCzh6WlOgu4LDUzR-88" style="edgeStyle=orthogonalEdgeStyle;rounded=0;orthogonalLoop=1;jettySize=auto;html=1;entryX=1;entryY=0.5;entryDx=0;entryDy=0;entryPerimeter=0;" edge="1" parent="1" source="VKPEJCzh6WlOgu4LDUzR-87" target="VKPEJCzh6WlOgu4LDUzR-29">
          <mxGeometry relative="1" as="geometry" />
        </mxCell>
        <mxCell id="VKPEJCzh6WlOgu4LDUzR-87" value="création de compte" style="strokeWidth=2;html=1;shape=mxgraph.flowchart.terminator;whiteSpace=wrap;" vertex="1" parent="1">
          <mxGeometry x="710" y="640" width="100" height="70" as="geometry" />
        </mxCell>
      </root>
    </mxGraphModel>
  </diagram>
</mxfile>
